<svg xmlns="http://www.w3.org/2000/svg" viewBox="0 0 300.68 53.67"><defs><style>.cls-1{fill:#4c5455;}</style></defs><title>Asset 1</title><g id="Layer_2" data-name="Layer 2"><g id="Layer_1-2" data-name="Layer 1"><polygon class="cls-1" points="44.42 6.85 44.35 7.91 44.42 10.03 44.35 11.16 44.28 11.72 44.13 12.57 43.92 13.06 43.5 13.42 42.65 13.56 41.52 13.56 39.4 13.35 38.27 13.28 35.02 13.49 33.9 13.49 32.13 13.35 31.07 13.35 30.58 13.42 29.87 13.63 29.59 14.05 29.52 14.97 29.23 19.14 29.23 20.27 29.52 24.5 29.45 25.63 29.16 29.87 29.09 31 29.23 35.17 29.23 41.66 29.09 45.83 29.16 46.89 29.52 50.06 29.59 51.2 29.38 52.04 29.02 52.4 28.11 52.54 26.76 52.47 25 52.26 23.8 52.18 20.62 52.4 19.49 52.4 16.31 52.18 15.46 52.11 15.04 51.9 14.9 51.13 14.9 49.92 15.11 46.96 15.18 45.83 15.18 40.53 15.25 36.3 15.25 35.17 15.32 31 15.32 29.87 15.04 25.63 14.97 24.5 14.97 19.14 14.83 14.97 14.83 13.98 14.62 13.42 13.91 13.28 12.85 13.28 10.59 13.42 9.32 13.42 7.42 13.28 6.21 13.2 5.01 13.28 3.39 13.35 2.33 13.35 1.76 13.28 0.99 13.13 0.56 12.85 0.28 12.43 0.14 11.72 0.14 11.23 0.07 10.1 0.21 7.98 0.21 6.92 0 4.24 0.07 3.11 0.28 2.19 0.56 1.69 0.99 1.48 1.7 1.34 3.32 1.34 5.93 1.55 7.06 1.55 11.16 1.27 12.29 1.27 16.45 1.62 17.58 1.62 22.81 1.27 26.9 1.34 28.03 1.34 33.33 1.27 38.56 1.27 40.89 1.13 42.09 1.2 42.65 1.27 43.5 1.41 43.99 1.69 44.35 2.19 44.49 3.04 44.49 3.53 44.56 4.59 44.42 6.85"/><polygon class="cls-1" points="90.81 45.62 90.74 46.75 90.46 50.56 90.39 51.27 90.11 51.76 89.75 52.04 80.5 52.33 79.37 52.33 75.63 52.04 74.5 52.11 70.83 52.4 69.7 52.47 64.83 52.47 61.15 52.18 60.02 52.18 53.95 52.54 51.55 52.4 50.7 52.26 50.21 51.9 49.99 51.41 49.85 50.63 49.71 49.01 49.64 47.88 49.71 46.82 49.71 45.76 49.99 42.02 49.99 40.89 50.07 37.14 49.99 36.01 49.78 32.27 49.71 31.14 49.85 27.33 49.85 21.32 50.14 17.58 50.07 16.45 49.85 12.71 49.78 11.58 49.78 9.89 49.92 7.77 49.92 6.71 50.14 3.04 50.21 2.05 50.42 1.48 50.77 1.2 51.34 1.13 52.26 0.99 56.84 1.27 61.15 1.2 62.28 1.2 66.52 1.48 67.65 1.48 71.89 1.2 73.02 1.2 82.62 1.34 83.82 1.27 86.22 1.06 87.99 1.06 88.97 1.27 89.4 1.62 89.54 2.12 89.68 3.04 89.68 4.94 89.54 6.71 89.54 7.91 89.61 9.67 89.68 10.73 89.61 11.79 89.47 12.64 89.19 13.13 88.83 13.42 87.99 13.56 87.42 13.56 86.29 13.63 79.65 13.49 78.52 13.49 74.92 13.63 73.79 13.63 70.12 13.49 66.94 13.28 65.88 13.28 65.32 13.35 64.61 13.49 64.26 13.84 64.19 14.26 64.05 15.04 63.91 16.73 63.91 17.86 63.98 19.07 64.05 19.84 64.19 20.34 64.47 20.69 65.25 20.9 67.51 21.04 69.77 20.9 76.48 20.9 84.39 20.48 86.57 20.62 87.35 20.76 87.78 21.11 87.99 21.54 88.06 22.31 88.2 23.51 88.27 24.71 88.27 27.05 88.41 28.67 88.27 30.79 88.13 31.64 87.84 32.13 87.35 32.48 86.64 32.62 85.23 32.62 82.06 32.27 80.92 32.2 75.28 32.55 70.76 32.41 69.63 32.41 66.8 32.2 65.6 32.27 64.75 32.34 64.4 32.55 64.19 33.05 64.12 34.11 63.91 35.87 63.84 37 63.84 38.55 63.91 39.26 64.12 39.76 64.4 40.04 65.18 40.11 69.06 40.25 70.19 40.25 74 39.97 79.02 40.25 80.15 40.25 85.16 39.97 86.22 39.97 87.28 40.04 89.82 40.32 90.25 40.53 90.53 40.96 90.6 41.73 90.81 45.62"/><path class="cls-1" d="M134,35.38l.63-1,.71-1.55.42-1.06.36-1.63.14-1.06.14-1.69V26.2l-.07-1.2-.07-1.13-.43-2.12-.28-1-.77-1.55-.57-.92-1-1.27-.7-.78-1.06-1.13-.78-.63-1.84-1.06-1-.43-1.13-.35-1.12-.21-2.26-.14-1.06.07-1.56.07-1.06.21-1.83.49-1.13.43L115,14.4l-1,.64-1.14,1-.77.85-.78,1.06-.56.91-.22.43L110,20.76l-.35,1.06-.22.49-.21,1-.14,1-.07,1-.07,1.06V27.4l.07,1.13.21,1.13.07.63.29,1.06.14.5.35,1,.28.56.57,1,.35.56.78,1,.42.5.85.84,1.41,1.2,1,.64,1.13.57,1.06.42,1.48.49,1.06.21,1.77.22,1.2.07,1.76-.14,1.13-.15,1.55-.35,1-.42,1.56-1,.84-.64,1.13-1.13.71-.77Zm17.23-9.18-.07,1.13L151,29,150.84,30l-.43,2.12-.14,1.62-.14,1.06-.21,1.13L149.63,37l-.7,1.48-.5,1-1.9,3.18-.64.92-.7.92-.71.77-1.13,1.2-.78.71-.91.71-.85.63-1.27.85-.92.56-1.06.57-1,.42-1.41.57-1.06.28-2.26.71-1.2.35-1.13.28-1.2.28-1.2.22-1.2.07h-3.82l-2.4-.14-2.33-.29-1-.21-1.06-.28-3.82-1.27-1.13-.36-1.2-.49-2.26-1-1.06-.56-1.06-.64-.91-.7L103,47l-.85-.92-.78-.92-1.9-1.9-.71-.85-.7-.92-.57-.92-.56-1.41-1.06-3.18-.43-1.48-.21-1.06L95,32.27l-.21-1.06-.21-1.55-.08-1.06-.07-1.2V26.2l.07-1.2.08-1.27.14-1.2.21-1.2.28-1.21.35-1.2.36-1.06.42-1.12.49-1.63.5-1.13.28-.63.57-1.06,1-1.56.7-1,.35-.56.85-.85,1.2-1,.92-.7.92-.64,2.12-1.41.91-.57,1-.56,1-.49,1.48-.64,1-.35,1.06-.36,1.06-.28,2.69-.49,1.05-.22L121,.21l2.25-.14,2.12.14,1.7.07,1.2.14,1.2.21,1.2.29,1.2.21,1.13.28,1.06.28,1.06.36,1.48.56,1,.43,2.33,1.34.92.63.92.71,1.2,1.13.77.71.78.77.64.85,1,1.34.57.92.49.92.57.92.78,1.41.56.92.49,1.05.36,1,.35,1.63.42,2.12.15,1.2.21,1.2Z"/><polygon class="cls-1" points="198.43 36.44 198.36 37.64 198.22 38.84 198.01 39.97 197.65 41.52 197.3 42.51 196.66 43.92 196.17 44.84 195.32 46.11 194.62 46.96 193.77 47.81 192.92 48.58 191.51 49.5 190.59 50.14 189.53 50.7 188.54 51.2 186.92 51.76 184.8 52.47 183.67 52.68 181.91 52.96 180.85 53.1 179.29 53.24 178.31 53.31 176.68 53.38 173.29 53.6 171.74 53.6 170.75 53.53 169.13 53.38 168.06 53.24 166.87 53.03 165.81 52.68 164.25 52.18 163.26 51.69 162.2 51.2 161.22 50.7 160.3 50.14 158.04 48.58 157.19 47.88 155.92 46.89 155.07 46.18 154.29 45.41 153.73 44.77 153.66 44.28 154.01 43.64 154.29 43.29 155 42.51 156.98 40.67 157.61 39.9 158.81 38.06 159.45 37.28 160.16 36.51 160.93 36.08 161.71 36.23 162.49 36.79 164.75 38.34 165.81 38.91 166.79 39.4 168.42 40.18 169.48 40.53 170.61 40.89 171.74 41.1 173.36 41.17 174.49 41.24 178.94 40.96 180.07 40.81 180.63 40.67 181.69 40.25 182.61 39.69 183.32 38.98 183.67 38.48 184.09 37.43 184.03 36.23 183.88 35.66 183.32 34.67 182.97 34.25 182.05 33.54 181.48 33.33 180.42 32.91 179.22 32.62 178.02 32.41 171.31 31.78 169.19 31.35 168.06 31.07 166.51 30.51 165.45 30.15 164.39 29.66 161.99 28.46 161.07 27.82 160.01 27.19 159.1 26.55 157.9 25.56 157.26 24.64 156.63 23.59 156.2 22.53 155.71 21.04 155.5 19.98 155.28 18.43 155.14 16.17 155.21 15.04 155.35 13.35 155.57 12.29 155.85 11.37 156.2 10.31 156.91 8.76 157.4 7.77 157.97 6.92 158.67 6.14 159.8 5.08 160.72 4.38 161.64 3.74 162.63 3.25 163.97 2.47 166.09 1.62 167.15 1.27 168.77 0.99 169.9 0.78 172.02 0.49 173.57 0.21 174.7 0.07 175.76 0 176.89 0 179.01 0.21 180.07 0.35 180.56 0.49 181.69 0.64 184.09 1.06 185.3 1.34 186.43 1.69 187.63 2.05 188.76 2.47 189.81 2.97 190.87 3.39 192.22 4.17 193.2 4.66 194.12 5.3 194.76 5.93 194.76 6.64 194.33 7.41 193.56 8.83 192.99 9.67 190.31 13.21 189.53 14.19 188.69 14.9 188.12 15.11 187.63 15.04 186.92 14.69 185.86 14.05 184.8 13.63 184.31 13.42 183.25 13.06 182.68 12.92 181.48 12.64 179.86 12.29 178.73 12.22 176.89 12.07 175.06 12.07 173.86 12.15 172.66 12.36 171.53 12.71 171.1 12.92 170.25 13.56 169.9 13.98 169.41 14.97 169.27 16.1 169.48 17.02 170.04 17.94 170.82 18.64 171.67 19.07 172.16 19.28 173.22 19.49 174.99 19.7 177.39 19.84 178.59 20.05 180.99 20.62 183.25 21.33 184.87 21.68 185.93 21.96 187.91 22.67 189.32 23.3 190.31 23.8 191.3 24.36 192.22 24.93 194.26 26.62 195.04 27.47 195.75 28.32 196.59 29.59 197.16 30.51 197.65 31.57 197.94 32.62 198.22 34.18 198.36 35.24 198.43 36.44"/><polygon class="cls-1" points="242.21 6.85 242.14 7.91 242.21 10.03 242.14 11.16 242.07 11.72 241.93 12.57 241.72 13.06 241.29 13.42 240.45 13.56 239.32 13.56 237.2 13.35 236.07 13.28 232.82 13.49 231.69 13.49 229.93 13.35 228.87 13.35 228.37 13.42 227.67 13.63 227.38 14.05 227.31 14.97 227.03 19.14 227.03 20.27 227.31 24.5 227.24 25.63 226.96 29.87 226.89 31 227.03 35.17 227.03 41.66 226.89 45.83 226.96 46.89 227.31 50.06 227.38 51.2 227.17 52.04 226.82 52.4 225.9 52.54 224.56 52.47 222.79 52.26 221.59 52.18 218.42 52.4 217.29 52.4 214.11 52.18 213.26 52.11 212.84 51.9 212.7 51.13 212.7 49.92 212.91 46.96 212.98 45.83 212.98 40.53 213.05 36.3 213.05 35.17 213.12 31 213.12 29.87 212.84 25.63 212.77 24.5 212.77 19.14 212.63 14.97 212.63 13.98 212.41 13.42 211.71 13.28 210.65 13.28 208.39 13.42 207.12 13.42 205.21 13.28 204.01 13.2 202.81 13.28 201.19 13.35 200.13 13.35 199.56 13.28 198.78 13.13 198.36 12.85 198.08 12.43 197.94 11.72 197.94 11.23 197.87 10.1 198.01 7.98 198.01 6.92 197.8 4.24 197.87 3.11 198.08 2.19 198.36 1.69 198.78 1.48 199.49 1.34 201.12 1.34 203.73 1.55 204.86 1.55 208.95 1.27 210.08 1.27 214.25 1.62 215.38 1.62 220.6 1.27 224.7 1.34 225.83 1.34 231.13 1.27 236.35 1.27 238.68 1.13 239.88 1.2 240.45 1.27 241.29 1.41 241.79 1.69 242.14 2.19 242.28 3.04 242.28 3.53 242.35 4.59 242.21 6.85"/><path class="cls-1" d="M283.45,35.38l.64-1,.71-1.55.42-1.06.35-1.63.14-1.06.14-1.69V26.2l-.07-1.2-.07-1.13-.42-2.12-.28-1-.78-1.55-.56-.92-1-1.27-.71-.78-1.06-1.13-.78-.63-1.83-1.06-1-.43-1.13-.35-1.13-.21-2.26-.14-1.06.07-1.55.07-1.06.21-1.84.49-1.13.43-1.62.84-1,.64-1.13,1-.78.85-.77,1.06-.57.91-.21.43-.64,1.48-.35,1.06-.21.49-.21,1-.14,1-.07,1-.08,1.06V27.4l.08,1.13.21,1.13.07.63.28,1.06.14.5.35,1,.29.56.56,1,.36.56.77,1,.43.5.84.84,1.42,1.2,1,.64,1.13.57,1.06.42,1.49.49,1.06.21,1.76.22,1.2.07,1.77-.14,1.13-.15,1.55-.35,1-.42,1.55-1,.85-.64,1.13-1.13.71-.77Zm17.23-9.18-.07,1.13L300.47,29,300.33,30l-.42,2.12-.14,1.62-.15,1.06-.21,1.13L299.13,37l-.71,1.48-.49,1L296,42.65l-.63.92-.71.92-.7.77-1.13,1.2-.78.71-.92.71-.85.63-1.27.85-.92.56-1.06.57-1,.42-1.42.57-1.06.28-2.26.71-1.2.35L279,53.1l-1.2.28-1.2.22-1.2.07h-3.81l-2.4-.14-2.33-.29-1-.21-1.06-.28L261,51.48l-1.13-.36-1.2-.49-2.26-1-1.06-.56-1.06-.64-.92-.7-.92-.78-.84-.92-.78-.92-1.91-1.9-.7-.85-.71-.92-.56-.92-.57-1.41-1.06-3.18-.42-1.48-.21-1.06-.22-1.13-.21-1.06-.21-1.55L244,28.6l-.07-1.2V26.2L244,25l.07-1.27.14-1.2.21-1.2.29-1.21.35-1.2.35-1.06.43-1.12.49-1.63L246.8,14l.29-.63.56-1.06,1-1.56.71-1,.35-.56.85-.85,1.2-1,.92-.7.91-.64,2.12-1.41.92-.57,1-.56,1-.49,1.48-.64,1-.35,1.06-.36,1.06-.28,2.68-.49,1.06-.22,3.53-.42,2.26-.14,2.12.14,1.69.07,1.2.14,1.2.21,1.2.29,1.2.21,1.13.28,1.06.28,1.06.36,1.49.56,1,.43,2.33,1.34.92.63.92.71,1.2,1.13.78.71.78.77.63.85,1,1.34.56.92.5.92.56.92.78,1.41.56.92.5,1.05.35,1,.36,1.63.42,2.12.14,1.2.21,1.2Z"/></g></g></svg>
